<svg xmlns="http://www.w3.org/2000/svg" version="1.1" xmlns:xlink="http://www.w3.org/1999/xlink" xmlns:svgjs="http://svgjs.com/svgjs" width="1440" height="1040" preserveAspectRatio="none" viewBox="0 0 1440 1040"><g mask="url(&quot;#SvgjsMask1497&quot;)" fill="none"><rect width="1440" height="1040" x="0" y="0" fill="rgba(77, 77, 77, 1)"></rect><path d="M1476.99 61.2C1307.11 67.66 1172.37 342.9 857.66 342 542.96 341.1 435.79-132.6 238.34-163.27" stroke="rgba(145, 145, 145, 1)" stroke-width="2"></path><path d="M1594.33 862.69C1472.93 861.49 1360.38 732.69 1126.43 732.69 892.48 732.69 960.62 913.2 658.53 862.69 356.44 812.18 403.44 88.2 190.63-58" stroke="rgba(145, 145, 145, 1)" stroke-width="2"></path><path d="M1674.24 837.78C1472.86 823.42 1319.65 495.22 975.93 432.18 632.2 369.14 768.88-22.06 626.77-87.83" stroke="rgba(145, 145, 145, 1)" stroke-width="2"></path><path d="M1469.89 259.2C1249.36 279.19 1016.26 741.17 724.47 737.6 432.68 734.03 527.67 62.34 351.76-75.83" stroke="rgba(145, 145, 145, 1)" stroke-width="2"></path><path d="M1618.11 398.78C1434.68 426.99 1359.73 879.93 1041.85 866.78 723.96 853.63 716.06 5.63 465.58-140.94" stroke="rgba(145, 145, 145, 1)" stroke-width="2"></path></g><defs><mask id="SvgjsMask1497"><rect width="1440" height="1040" fill="#ffffff"></rect></mask></defs></svg>